<svg xmlns="http://www.w3.org/2000/svg" xmlns:xlink="http://www.w3.org/1999/xlink" viewBox="0 0 1000 1000"><g id="graph0" class="graph" transform="scale(4.16667 4.16667) rotate(0) translate(4 238)"><title>%3</title><polygon fill="#fff" stroke="none" points="-4 4 -4 -238 233 -238 233 4 -4 4"/><g id="node1" class="node"><title>table0</title><polygon fill="gray" stroke="none" points="8 -130 8 -230 96 -230 96 -130 8 -130"/><polyline fill="none" stroke="#000" points="8 -210 96 -210"/><text x="45.776" y="-215.8" font-family="Times,serif" font-size="14" text-anchor="start">s1</text><polygon fill="none" stroke="#000" points="8 -190 8 -210 60 -210 60 -190 8 -190"/><text x="18.841" y="-195.8" font-family="Times,serif" font-size="14" text-anchor="start">name</text><polygon fill="none" stroke="#000" points="60 -190 60 -210 96 -210 96 -190 60 -190"/><text x="62.841" y="-195.8" font-family="Times,serif" font-size="14" text-anchor="start">value</text><polygon fill="none" stroke="#000" points="8 -170 8 -190 60 -190 60 -170 8 -170"/><text x="26.224" y="-175.8" font-family="Times,serif" font-size="14" text-anchor="start">ptr</text><polygon fill="none" stroke="#000" points="60 -170 60 -190 96 -190 96 -170 60 -170"/><polygon fill="none" stroke="#000" points="8 -150 8 -170 60 -170 60 -150 8 -150"/><text x="25.448" y="-155.8" font-family="Times,serif" font-size="14" text-anchor="start">len</text><polygon fill="none" stroke="#000" points="60 -150 60 -170 96 -170 96 -150 60 -150"/><text x="74.5" y="-155.8" font-family="Times,serif" font-size="14" text-anchor="start">5</text><polygon fill="none" stroke="#000" points="8 -130 8 -150 60 -150 60 -130 8 -130"/><text x="10.683" y="-135.8" font-family="Times,serif" font-size="14" text-anchor="start">capacity</text><polygon fill="none" stroke="#000" points="60 -130 60 -150 96 -150 96 -130 60 -130"/><text x="74.5" y="-135.8" font-family="Times,serif" font-size="14" text-anchor="start">5</text></g><g id="node3" class="node"><title>table1</title><polygon fill="none" stroke="#000" points="148.5 -127 148.5 -147 185.5 -147 185.5 -127 148.5 -127"/><text x="151.448" y="-132.8" font-family="Times,serif" font-size="14" text-anchor="start">index</text><polygon fill="none" stroke="#000" points="185.5 -127 185.5 -147 221.5 -147 221.5 -127 185.5 -127"/><text x="188.341" y="-132.8" font-family="Times,serif" font-size="14" text-anchor="start">value</text><polygon fill="none" stroke="#000" points="148.5 -107 148.5 -127 185.5 -127 185.5 -107 148.5 -107"/><text x="163.5" y="-112.8" font-family="Times,serif" font-size="14" text-anchor="start">0</text><polygon fill="none" stroke="#000" points="185.5 -107 185.5 -127 221.5 -127 221.5 -107 185.5 -107"/><text x="200" y="-112.8" font-family="Times,serif" font-size="14" text-anchor="start">h</text><polygon fill="none" stroke="#000" points="148.5 -87 148.5 -107 185.5 -107 185.5 -87 148.5 -87"/><text x="163.5" y="-92.8" font-family="Times,serif" font-size="14" text-anchor="start">1</text><polygon fill="none" stroke="#000" points="185.5 -87 185.5 -107 221.5 -107 221.5 -87 185.5 -87"/><text x="200.393" y="-92.8" font-family="Times,serif" font-size="14" text-anchor="start">e</text><polygon fill="none" stroke="#000" points="148.5 -67 148.5 -87 185.5 -87 185.5 -67 148.5 -67"/><text x="163.5" y="-72.8" font-family="Times,serif" font-size="14" text-anchor="start">2</text><polygon fill="none" stroke="#000" points="185.5 -67 185.5 -87 221.5 -87 221.5 -67 185.5 -67"/><text x="201.555" y="-72.8" font-family="Times,serif" font-size="14" text-anchor="start">l</text><polygon fill="none" stroke="#000" points="148.5 -47 148.5 -67 185.5 -67 185.5 -47 148.5 -47"/><text x="163.5" y="-52.8" font-family="Times,serif" font-size="14" text-anchor="start">3</text><polygon fill="none" stroke="#000" points="185.5 -47 185.5 -67 221.5 -67 221.5 -47 185.5 -47"/><text x="201.555" y="-52.8" font-family="Times,serif" font-size="14" text-anchor="start">l</text><polygon fill="none" stroke="#000" points="148.5 -27 148.5 -47 185.5 -47 185.5 -27 148.5 -27"/><text x="163.5" y="-32.8" font-family="Times,serif" font-size="14" text-anchor="start">4</text><polygon fill="none" stroke="#000" points="185.5 -27 185.5 -47 221.5 -47 221.5 -27 185.5 -27"/><text x="200" y="-32.8" font-family="Times,serif" font-size="14" text-anchor="start">o</text></g><g id="edge1" class="edge"><title>table0:pointer:c-&gt;table1:pointee</title><path fill="none" stroke="#000" d="M79,-180C79,-180 101.674,-127.363 137.16,-118.316"/><polygon fill="#000" stroke="#000" points="138.022 -121.734 147.5 -117 137.138 -114.79 138.022 -121.734"/></g><g id="node2" class="node"><title>table3</title><polyline fill="none" stroke="#000" points="8 -84 96 -84"/><text x="45.776" y="-89.8" font-family="Times,serif" font-size="14" text-anchor="start">s2</text><polygon fill="none" stroke="#000" points="8 -64 8 -84 60 -84 60 -64 8 -64"/><text x="18.841" y="-69.8" font-family="Times,serif" font-size="14" text-anchor="start">name</text><polygon fill="none" stroke="#000" points="60 -64 60 -84 96 -84 96 -64 60 -64"/><text x="62.841" y="-69.8" font-family="Times,serif" font-size="14" text-anchor="start">value</text><polygon fill="none" stroke="#000" points="8 -44 8 -64 60 -64 60 -44 8 -44"/><text x="26.224" y="-49.8" font-family="Times,serif" font-size="14" text-anchor="start">ptr</text><polygon fill="none" stroke="#000" points="60 -44 60 -64 96 -64 96 -44 60 -44"/><polygon fill="none" stroke="#000" points="8 -24 8 -44 60 -44 60 -24 8 -24"/><text x="25.448" y="-29.8" font-family="Times,serif" font-size="14" text-anchor="start">len</text><polygon fill="none" stroke="#000" points="60 -24 60 -44 96 -44 96 -24 60 -24"/><text x="74.5" y="-29.8" font-family="Times,serif" font-size="14" text-anchor="start">5</text><polygon fill="none" stroke="#000" points="8 -4 8 -24 60 -24 60 -4 8 -4"/><text x="10.683" y="-9.8" font-family="Times,serif" font-size="14" text-anchor="start">capacity</text><polygon fill="none" stroke="#000" points="60 -4 60 -24 96 -24 96 -4 60 -4"/><text x="74.5" y="-9.8" font-family="Times,serif" font-size="14" text-anchor="start">5</text></g><g id="edge2" class="edge"><title>table3:pointer:c-&gt;table1:pointee</title><path fill="none" stroke="#000" d="M79,-54C79,-54 101.674,-106.637 137.16,-115.684"/><polygon fill="#000" stroke="#000" points="137.138 -119.21 147.5 -117 138.022 -112.266 137.138 -119.21"/></g></g></svg>