<svg xmlns="http://www.w3.org/2000/svg" xmlns:xlink="http://www.w3.org/1999/xlink" width="1000" viewBox="0 0 2500 700"><g id="graph0" class="graph" transform="scale(4.16667 4.16667) rotate(0) translate(4 148)"><title>%3</title><polygon fill="#fff" stroke="none" points="-4 4 -4 -148 418 -148 418 4 -4 4"/><g id="node1" class="node"><title>table4</title><text x="21" y="-121.8" font-family="Times,serif" font-size="14" text-anchor="start">b</text></g><g id="node2" class="node"><title>table5</title><polygon fill="none" stroke="#000" points="104 -116 104 -136 117 -136 117 -116 104 -116"/><text x="107" y="-121.8" font-family="Times,serif" font-size="14" text-anchor="start">3</text><polygon fill="none" stroke="#000" points="117 -116 117 -136 130 -136 130 -116 117 -116"/></g><g id="edge4" class="edge"><title>table4:ptr4:c-&gt;table5:pte4</title><path fill="none" stroke="#000" d="M35,-126C35,-126 64.9658,-126 92.8715,-126"/><polygon fill="#000" stroke="#000" points="93 -129.5 103 -126 93 -122.5 93 -129.5"/></g><g id="node4" class="node"><title>table1</title><polygon fill="none" stroke="#000" points="194 -62 194 -82 207 -82 207 -62 194 -62"/><text x="197" y="-67.8" font-family="Times,serif" font-size="14" text-anchor="start">5</text><polygon fill="none" stroke="#000" points="207 -62 207 -82 220 -82 220 -62 207 -62"/></g><g id="edge5" class="edge"><title>table5:ptr5:c-&gt;table1:pte0</title><path fill="none" stroke="#000" d="M125,-126C125,-126 149.361,-81.2672 182.835,-73.2293"/><polygon fill="#000" stroke="#000" points="183.493 -76.675 193 -72 182.652 -69.726 183.493 -76.675"/></g><g id="node3" class="node"><title>table0</title><text x="110.893" y="-67.8" font-family="Times,serif" font-size="14" text-anchor="start">a</text></g><g id="edge1" class="edge"><title>table0:ptr0:c-&gt;table1:pte0</title><path fill="none" stroke="#000" d="M124,-72C124,-72 154.406,-72 182.723,-72"/><polygon fill="#000" stroke="#000" points="183 -75.5 193 -72 183 -68.5 183 -75.5"/></g><g id="node5" class="node"><title>table2</title><polygon fill="none" stroke="#000" points="281 -62 281 -82 301 -82 301 -62 281 -62"/><text x="284" y="-67.8" font-family="Times,serif" font-size="14" text-anchor="start">10</text><polygon fill="none" stroke="#000" points="301 -62 301 -82 314 -82 314 -62 301 -62"/></g><g id="edge2" class="edge"><title>table1:ptr1:c-&gt;table2:pte1</title><path fill="none" stroke="#000" d="M215,-72C215,-72 243.393,-72 269.967,-72"/><polygon fill="#000" stroke="#000" points="270 -75.5 280 -72 270 -68.5 270 -75.5"/></g><g id="node6" class="node"><title>table3</title><polygon fill="none" stroke="#000" points="376 -62 376 -82 399 -82 399 -62 376 -62"/><text x="378.555" y="-67.8" font-family="Times,serif" font-size="14" text-anchor="start">Nil</text></g><g id="edge3" class="edge"><title>table2:ptr2:c-&gt;table3:pte2</title><path fill="none" stroke="#000" d="M309,-72C309,-72 342.423,-72 365.512,-72"/><polygon fill="#000" stroke="#000" points="365.825 -75.5 375.825 -72 365.824 -68.5 365.825 -75.5"/></g><g id="node7" class="node"><title>table6</title><text x="20.893" y="-13.8" font-family="Times,serif" font-size="14" text-anchor="start">c</text></g><g id="node8" class="node"><title>table7</title><polygon fill="none" stroke="#000" points="104 -8 104 -28 117 -28 117 -8 104 -8"/><text x="107" y="-13.8" font-family="Times,serif" font-size="14" text-anchor="start">4</text><polygon fill="none" stroke="#000" points="117 -8 117 -28 130 -28 130 -8 117 -8"/></g><g id="edge6" class="edge"><title>table6:ptr6:c-&gt;table7:pte6</title><path fill="none" stroke="#000" d="M34,-18C34,-18 64.4065,-18 92.7225,-18"/><polygon fill="#000" stroke="#000" points="93 -21.5 103 -18 93 -14.5 93 -21.5"/></g><g id="edge7" class="edge"><title>table7:ptr7:c-&gt;table1:pte0</title><path fill="none" stroke="#000" d="M125,-18C125,-18 149.361,-62.7328 182.835,-70.7707"/><polygon fill="#000" stroke="#000" points="182.652 -74.274 193 -72 183.493 -67.325 182.652 -74.274"/></g></g></svg>